<svg xmlns="http://www.w3.org/2000/svg" version="1.1" xmlns:xlink="http://www.w3.org/1999/xlink" xmlns:svgjs="http://svgjs.com/svgjs" width="192" height="192"><svg width="192" height="192" viewBox="0 0 192 192" version="1.1" id="SvgjsSvg1006" sodipodi:docname="favicon.svg" inkscape:version="1.2.1 (9c6d41e, 2022-07-14)" xmlns:inkscape="http://www.inkscape.org/namespaces/inkscape" xmlns:sodipodi="http://sodipodi.sourceforge.net/DTD/sodipodi-0.dtd" xmlns="http://www.w3.org/2000/svg" xmlns:svg="http://www.w3.org/2000/svg">
  <sodipodi:namedview id="SvgjsSodipodi:namedview1005" pagecolor="#ffffff" bordercolor="#111111" borderopacity="1" inkscape:showpageshadow="0" inkscape:pageopacity="0" inkscape:pagecheckerboard="1" inkscape:deskcolor="#d1d1d1" showgrid="false" inkscape:zoom="2.1731423" inkscape:cx="59.130965" inkscape:cy="129.07576" inkscape:window-width="1680" inkscape:window-height="997" inkscape:window-x="0" inkscape:window-y="25" inkscape:window-maximized="0" inkscape:current-layer="svg160"></sodipodi:namedview>
  <defs id="SvgjsDefs1004"></defs>
  <g stroke="none" stroke-width="1" fill="none" id="SvgjsG1003" style="fill:#008a5a;fill-opacity:1" transform="matrix(1.6642354,0,0,1.6642354,-63.766598,-63.766598)">
    <g id="SvgjsG1002" transform="translate(-59.5625,-8.4999925)" style="fill:#008a5a;fill-opacity:1">
      <path d="m 155.34238,143 h -13.5 c -1.18835,0 0.98904,-2.04306 2,-3 1.99489,-1.8883 7,-6.5 4.5,-7.5 -3.01378,-1.20551 -16,0 -20,-3.5 -2.47783,-2.1681 4.23377,-2.71626 8,-5.5 11.5,-8.5 2.5,-5.5 -5.5,-8 -8,-2.5 -0.5,-1.5 8.5,-8.5 9,-7 3,-4.5 -5.5,-6.5 -8.5,-2 3,-3.5 9,-10.5 6,-7 1,-5.5 -7,-7.5 -8,-2 4.5,-3.5 10.5,-9.5 6,-6 6,-13 9,-16 0.089,-0.08898 0.17268,-0.09703 0.25134,-0.02886 0.0602,-0.04559 0.12312,-0.03691 0.18889,0.02886 3,3 3,10 9,16 6,6 18.5,7.5 10.5,9.5 -8,2 -13,0.5 -7,7.5 6,7 17.5,8.5 9,10.5 -8.5,2 -14.5,-0.5 -5.5,6.5 9,7 16.5,6 8.5,8.5 -8,2.5 -17,-0.5 -5.5,8 3.76623,2.78374 10.47783,3.3319 8,5.5 -4,3.5 -16.98623,2.29449 -20,3.5 -2.5,1 2.50511,5.6117 4.5,7.5 1.01095,0.95694 3.18835,3 2,3 z" fill="#008A59" id="SvgjsPath1001" style="fill:#008a5a;fill-opacity:1"></path>
      <path d="m 156,50 h 26.00943 V 46.999985 H 188 c 0,0 1.17115,3.276407 4.5,6.000015 3.32885,2.723608 6.5,3 6.5,3 0,0 0.5,50 -0.5,54.5 -1,4.5 -3,18.5 -15,31 -12,12.5 -28,20.5 -28,20.5 v -6 c 0,0 13.77717,-6.62904 24.88858,-18.31452 C 191.5,126 194.5,107 194.5,107 V 60 c 0,0 -2,-0.5 -5.5,-3.5 -3.5,-3 -3,-3.5 -3.5,-3.5 -0.5,0 -1.5,2 -1.5,2 -9.62728,0 -28,0 -28,0 z m 0,0 H 129.11557 V 46.999985 H 123.125 c 0,0 -1.17115,3.276407 -4.5,6.000015 -3.32885,2.723608 -6.5,3 -6.5,3 0,0 -0.5,50 0.5,54.5 1,4.5 3,18.5 15,31 12,12.5 27.875,20.5 27.875,20.5 v -6 c 0,0 -13.65217,-6.62904 -24.76358,-18.31452 C 119.625,126 116.625,107 116.625,107 V 60 c 0,0 2,-0.5 5.5,-3.5 3.5,-3 3,-3.5 3.5,-3.5 0.5,0 1.5,2 1.5,2 9.62727,0 28.875,0 28.875,0 z" fill="#323989" id="SvgjsPath1000" style="fill:#008a5a;fill-opacity:1"></path>
    </g>
  </g>
</svg><style>@media (prefers-color-scheme: light) { :root { filter: none; } }
@media (prefers-color-scheme: dark) { :root { filter: contrast(0.3846153846153846) brightness(4.5); } }
</style></svg>