<?xml version="1.0" encoding="UTF-8" standalone="no"?>
<svg
   width="313px"
   height="205px"
   viewBox="0 0 313 205"
   version="1.1"
   id="svg160"
   sodipodi:docname="hel-logo (1).svg"
   inkscape:version="1.2.1 (9c6d41e, 2022-07-14)"
   xmlns:inkscape="http://www.inkscape.org/namespaces/inkscape"
   xmlns:sodipodi="http://sodipodi.sourceforge.net/DTD/sodipodi-0.dtd"
   xmlns="http://www.w3.org/2000/svg"
   xmlns:svg="http://www.w3.org/2000/svg">
  <defs
     id="defs164" />
  <sodipodi:namedview
     id="namedview162"
     pagecolor="#f3f6f8"
     bordercolor="#111111"
     borderopacity="1"
     inkscape:showpageshadow="0"
     inkscape:pageopacity="0"
     inkscape:pagecheckerboard="1"
     inkscape:deskcolor="#d1d1d1"
     showgrid="false"
     inkscape:zoom="3.5445075"
     inkscape:cx="194.24419"
     inkscape:cy="102.27091"
     inkscape:window-width="1680"
     inkscape:window-height="997"
     inkscape:window-x="0"
     inkscape:window-y="25"
     inkscape:window-maximized="0"
     inkscape:current-layer="g158" />
  <g
     stroke="none"
     stroke-width="1"
     fill="none"
     id="g158">
    <g
       transform="translate(23.000000, 9.000000)"
       id="g134"
       style="fill:#f3f6f8">
      <path
         id="path130"
         d="M 45 0 C 44.0134 0 42.999999 1.0000005 42 1.5 C 41.000001 1.9999995 39.141423 2.0876566 38.5 2.5 C 36.625953 3.7047445 36.5 5 36.5 5 C 36.5 5 35.218296 4.6875825 33.5 5 C 31.781704 5.3124175 30.5 6.5 30.5 6.5 C 30.5 6.5 33.898 7.5024996 33.5 8 C 33.102 8.4975004 31.117779 7.7058328 29 8.5 C 26.882221 9.2941672 25.5 11.5 25.5 11.5 C 25.5 11.5 28.546998 11.270669 28 12 C 27.72677 12.364306 25.1801 13.217254 23.5 14.5 C 21.816586 15.785276 21 17.5 21 17.5 C 21 17.5 23.352389 17.352389 24 18 C 24.647611 18.647611 22.729456 18.997332 21.5 20.5 C 20.270544 22.002668 19.5 23.5 19.5 23.5 C 19.5 23.5 21.5 23.556179 21.5 24.5 C 21.5 24.902964 19.917836 25.997969 19.5 27.5 C 18.939182 29.516021 20 32 20 32 C 20 32 22.614998 29.056242 23 30.5 C 23.160067 31.100252 21.82609 32.869912 21.5 34.5 C 21.041762 36.790686 21.5 39 21.5 39 C 21.5 39 24.608836 37.217671 25 38 C 25.391164 38.782329 23 42 23 42 C 23 42 25.384701 41.962305 25.5 43 C 25.615299 44.037695 24.505445 46.5 23.5 46.5 C 23 47 26 51 26 51 C 26 51 25.68267 48.306499 26.5 48 C 27.31733 47.693501 28.55085 48.7034 29 50.5 C 29.44915 52.2966 28.5 56 28.5 56 C 28.5 56 30.155901 54.197103 30.5 55 C 30.844099 55.802897 30 59.5 30 59.5 C 30 59.5 31.377465 59.233199 32 59.5 C 32.54413 59.733199 33.5 61.5 33.5 61.5 C 33.5 61.5 34.250001 58 35 58 C 35.749999 58 37.500076 57.999849 35.978516 61.542969 L 34 65.5 C 34 65.5 37.419207 64.91311 37 65.5 C 36.580793 66.08689 33.432516 66.567484 31 69 C 28.567484 71.432516 29 74 29 74 C 29 74 32.5 71.500001 33 72.5 C 33.5 73.499999 30 76.5 30 76.5 C 30 76.5 31.292084 78.026388 31 79 C 30.707916 79.973612 28 81 28 81 C 28 81 30.839754 81.405431 30.5 82 C 30.160246 82.594569 27.553132 82.740173 25.5 84.5 C 23.446868 86.259827 23 88 23 88 C 23 88 26.06672 87.422293 26.5 88 C 26.93328 88.577707 20 93.5 20 93.5 C 20 93.5 22.794146 93.715612 22.5 94.5 C 22.205854 95.284388 15.499998 98.999994 14 93.5 C 13.34731 91.106804 14.200769 85.832237 16 80 C 18.335725 72.428711 21.935128 63.954107 22.5 60 C 23.499999 53.000007 18 48 18 48 C 18 48 14.578236 44.594978 12 44 C 9.4217642 43.405022 12.266943 47.099585 12 47.5 C 11.733057 47.900415 10.010173 48.649711 9.5 49.5 C 8.9898265 50.350289 10.703319 49.406637 11 50 C 11.296681 50.593363 10.385076 50.92538 10.5 51.5 C 10.614924 52.07462 12.109294 52.062823 12 52.5 C 11.890706 52.937177 11.137832 52.94867 11 53.5 C 10.862168 54.05133 11.5 54 11.5 54.5 C 11.5 55 10.636081 55.526905 11 56 C 11.363919 56.473095 16 59.500001 16.5 61 C 16.766942 61.800826 15.592591 64.581067 15 66 C 14.48263 67.238819 15.056251 68.611234 15 69.5 C 14.677643 74.593247 7.0877831 88.138516 9 95 C 10.912217 101.86148 19.5 104 20 106 C 20.5 108 15 112 15 112 C 15 112 17.746372 111.6123 18 112.5 C 18.253628 113.3877 10.5 117.5 10.5 117.5 C 10.5 117.5 14.97428 117.93086 14.5 118.5 C 14.02572 119.06914 10.774192 119.37856 8 121.5 C 5.2258078 123.62144 6 125 6 125 C 6 125 8.2430746 123.89446 9 124.5 C 9.7569254 125.10554 8.499999 127 7.5 127.5 C 6.500001 128 2.862532 127.22992 1.5 130.5 C 0.137468 133.77008 1.000001 135.5 2 136.5 C 2.999999 137.5 6.3808734 138.59514 9 142 C 11.619127 145.40486 10.702421 146.85778 13 149.5 C 15.297579 152.14222 17.000003 153 20 153 C 22.999997 153 22.975967 152 24.5 152 C 26.024033 152 28.189927 153.24861 29.5 152.5 C 30.810073 151.75139 31.248177 149.86133 31 148 C 30.751823 146.13867 26.499997 145 23.5 144 C 20.500003 143 20.037651 139.00904 19.5 136.5 C 18.962349 133.99096 22 137 22 137 C 22 137 22.202293 135.92183 22 134.5 C 21.823643 133.26046 20.7151 131.71225 21 131 C 21.611697 129.47076 24 132 24 132 C 24 132 23.689369 129.79701 24.5 128.5 C 25.310631 127.20299 26.118263 128.6613 27 128 C 27.881737 127.3387 27.789349 125.21574 28.5 125.5 C 29.210651 125.78426 29 129 29 129 C 29 129 31.098371 127.88 32 126.5 C 33.229871 124.61761 33.423003 122.2885 34 122 C 34.999999 121.5 36 123 36 123 C 36 123 35.909196 119.49981 37 117.5 C 38.090804 115.50019 39 117.5 39 117.5 C 39 117.5 38.000001 110.5 39 110 C 39.999999 109.5 41.5 111.5 41.5 111.5 C 41.5 111.5 40.158456 107.22004 40.5 105 C 40.841544 102.77996 42.5 105 42.5 105 C 42.5 105 42.706259 101.72678 43.5 101.5 C 44.293741 101.27322 46.5 107.5 46.5 107.5 C 46.5 107.5 47.450835 105.30924 48.5 105.5 C 49.549165 105.69076 51.379744 106.63923 52 108.5 C 52.620256 110.36077 49.5 111.5 49.5 111.5 L 50 116.5 C 50 116.5 52.820618 112.45649 53.5 113 C 54.179382 113.54351 52.5 118.5 52.5 118.5 C 52.5 118.5 54.896514 117.2756 55 118 C 55.103486 118.7244 52.5 121 52.5 121 C 52.5 121 53.723299 121.2233 54 121.5 C 54.389965 121.88997 54.5 123.5 54.5 123.5 C 54.5 123.5 55.643806 120.40634 56 121 C 56.356194 121.59366 55.5 126.5 55.5 126.5 C 55.5 126.5 57.727859 126.09179 58 126.5 C 58.272141 126.90821 56.548837 126.9907 56 128.5 C 55.451163 130.0093 56 132 56 132 C 56 132 58.26868 128.9217 58.5 129.5 C 58.73132 130.0783 57.776396 132.50355 57 134.5 C 56.223604 136.49645 54.584006 137.12803 55 139 C 55.415994 140.87197 56.071703 142.82424 59 143.5 C 61.928297 144.17576 63.781625 141.66197 67.5 142 C 71.218375 142.33803 71.71587 144.88609 76.5 145 C 81.28413 145.11391 79.500003 143.5 82.5 143 C 85.499997 142.5 92.5 141.5 92 138 C 91.730554 136.11388 89.675297 134.76955 86.5 134.5 C 83.783031 134.26936 80.170122 135.15398 77 133.5 C 70.124984 129.91304 68.376926 123.70769 69 123.5 C 69.623074 123.29231 72 125 72 125 C 72 125 70.619905 122.47962 70 120 C 69.380095 117.52038 68.58033 116.19945 69 115.5 C 69.41967 114.80055 71.5 117.5 71.5 117.5 C 71.5 117.5 71.700593 114.20144 71 112.5 C 70.299407 110.79856 69.5 110.73813 69.5 109.5 C 69.5 108.26187 71.5 109 71.5 109 C 71.5 109 63.120188 96.275235 60.5 93 C 57.879812 89.724765 55.5 89.999999 55 88.5 C 54.5 87.000001 57 85 57 85 C 57 85 55.130084 84.280505 55 83.5 C 54.869916 82.719495 56.5 82.5 56.5 82.5 C 56.5 82.5 54.592804 80.314393 55 79.5 C 55.407196 78.685607 58 79 58 79 C 58 79 55.887296 77.288927 56 76.5 C 56.112704 75.711073 58.5 75.5 58.5 75.5 C 58.5 75.5 57.299926 75.249816 57 74.5 C 56.700074 73.750184 57.5 73 57.5 73 C 57.5 73 56.288231 72.508807 56 71.5 C 55.711769 70.491193 57.011178 69.860337 57.5 70 C 57.988822 70.139663 60.5 75 60.5 75 C 60.5 75 61.41418 73.13806 62.5 73.5 C 63.58582 73.86194 64.750001 75.750002 66 77.5 L 68.5 80.5 C 68.5 80.5 69.44127 79.529453 70.5 80 C 71.55873 80.470547 73 82.5 73 82.5 C 73 82.5 73.000001 81 74 81 C 74.999999 81 76 83.5 76 83.5 C 76 83.5 77.479428 81.979428 78 82.5 C 78.520572 83.020572 77.5 85.5 77.5 85.5 C 77.5 85.5 79.198525 84.85882 80 85.5 C 80.801475 86.14118 79.5 88 79.5 88 C 79.5 88 81.050846 87.457626 82 88 C 82.949154 88.542374 82.5 90.5 82.5 90.5 C 82.5 90.5 83.538228 88.879779 84.5 89 C 85.461772 89.120221 85 91.5 85 91.5 C 85 91.5 86.031446 90 87.5 90 C 88.968554 90 89.5 93 89.5 93 L 89.5 80.5 C 89.5 80.5 84.499998 74.499998 82 72 C 79.500002 69.500002 77.5 68.999999 77 68 C 76.5 67.000001 80 67 80 67 C 80 67 78.999999 65.5 78 65 C 77.660592 64.830296 75.999999 65.5 75 65 C 74.000001 64.5 72.5 63.436911 72.5 62.5 C 72.5 61.563089 75 62 75 62 C 75 62 74.914061 61.185262 73.5 60 C 72.65867 59.294799 69.916635 58.571346 69.5 57.5 C 68.383109 54.627994 74 55 74 55 C 74 55 72.964451 52.428439 73.5 52 C 74.035549 51.571561 76.5 53.5 76.5 53.5 C 76.5 53.5 76.087151 51.876163 76.5 50.5 C 76.912849 49.123837 78 48.5 78 48.5 L 79.5 51 C 79.5 51 79.452004 48.421325 80.5 46.5 C 81.547996 44.578675 83.5 48.5 83.5 48.5 C 83.5 48.5 83.476069 46.523931 84 46 C 84.523931 45.476069 85.5 46.628702 85.5 46.5 C 85.5 46.435649 84.238035 44.523931 84.5 44 C 84.761965 43.476069 86.5 45 86.5 45 C 86.5 45 87.001696 42.331072 88 41 C 88.998304 39.668928 90.5 43.5 90.5 43.5 C 90.5 43.5 90.504814 41.485559 91 40 C 91.495186 38.514441 93 39.5 93 39.5 C 93 39.5 92.998473 37.358452 94 36.5 C 95.001527 35.641548 96.5 36.5 96.5 36.5 C 96.5 36.5 96.924864 35.115027 97.5 35 C 98.075136 34.884973 99 36 99 36 C 99 36 99.5 33.499999 99.5 32.5 C 99.5 31.500001 99.360388 28.996924 97 28.5 C 94.639612 28.003076 93.499996 27.500002 89.5 29.5 C 85.500004 31.499998 84.999999 34.000001 83.5 35 C 82.000001 35.999999 79.536969 36.52817 76.5 37.5 C 73.463031 38.47183 71.931884 38.327246 69 39.5 C 66.068116 40.672754 66.158523 42.442614 63 43 C 59.841477 43.557386 61.5 41 61.5 41 C 61.5 41 58.5 40.871839 58.5 40.5 C 58.5 40.128161 61.5 39.5 61.5 39.5 C 61.5 39.5 59.558469 39.335081 59 39 C 58.725137 38.835082 59 38 59 38 C 59 38 55.466569 37.466569 55 37 C 54.533431 36.533431 57.5 36.5 57.5 36.5 C 57.5 36.5 56.342806 35.137122 53.5 34 C 50.657194 32.862878 47 32.5 47 32.5 C 47 32.5 45.76274 30.35589 46 30 C 46.23726 29.64411 48.5 31.5 48.5 31.5 C 48.5 31.5 48.915946 29.4197 50 29.5 C 51.084054 29.5803 60.000116 33.166577 61.5 32 C 62.999884 30.833423 61.609727 28.609727 61 28 C 60.609728 27.609728 59.5 27 59.5 27 C 59.5 27 59.080235 29.193412 58.5 29 C 57.919765 28.806588 55.491381 27.179314 55 26 C 54.658048 25.179316 55.620811 23.527514 56.5 23 C 57.379189 22.472486 60 23 60 23 C 60 23 60.750001 25.5 61.5 25.5 C 62.249999 25.5 63 23.999999 63 23 L 63 19 C 63 17.500002 62.352109 15.905633 61 15.5 C 59.647891 15.094367 59.103356 17 58 17 C 56.896644 17 54.999999 16.999999 54 15.5 C 54 15.5 52.669189 11.790516 50 9 C 47.330811 6.2094838 45 6.4999985 45 5 C 45 3.5000015 46.864805 3.5879882 47.5 2 C 48.135195 0.41201182 46.499999 0 45 0 z M 48.998047 15.871094 C 49.192542 15.882775 49.36365 15.92425 49.5 16 C 50.590802 16.606001 50.111988 18.505783 49 19 C 47.888012 19.494217 44.877206 18.982351 45 18 C 45.107445 17.140443 47.636578 15.789327 48.998047 15.871094 z "
         style="fill:#f3f6f8" />
    </g>
    <g
       transform="translate(238.000000, 85.500000) scale(-1, 1) translate(-238.000000, -85.500000) translate(188.000000, 9.000000)"
       id="g140"
       style="fill:#f3f6f8">
      <path
         id="path136"
         d="M 45 0 C 46.499999 0 48.135195 0.41201182 47.5 2 C 46.864805 3.5879882 45 3.5000015 45 5 C 45 6.4999985 47.330811 6.2094838 50 9 C 52.669189 11.790516 54 15.5 54 15.5 C 54.999999 16.999999 56.896644 17 58 17 C 59.103356 17 59.647891 15.094367 61 15.5 C 62.352109 15.905633 63 17.500002 63 19 L 63 23 C 63 23.999999 62.249999 25.5 61.5 25.5 C 60.750001 25.5 60 23 60 23 C 60 23 57.379189 22.472486 56.5 23 C 55.620811 23.527514 54.658048 25.179316 55 26 C 55.491381 27.179314 57.919765 28.806588 58.5 29 C 59.080235 29.193412 59.5 27 59.5 27 C 59.5 27 60.609728 27.609728 61 28 C 61.609727 28.609727 62.999884 30.833423 61.5 32 C 60.000116 33.166577 51.084054 29.5803 50 29.5 C 48.915946 29.4197 48.5 31.5 48.5 31.5 C 48.5 31.5 46.23726 29.64411 46 30 C 45.76274 30.35589 47 32.5 47 32.5 C 47 32.5 50.657194 32.862878 53.5 34 C 56.342806 35.137122 57.5 36.5 57.5 36.5 C 57.5 36.5 54.533431 36.533431 55 37 C 55.466569 37.466569 59 38 59 38 C 59 38 58.725137 38.835082 59 39 C 59.558469 39.335081 61.5 39.5 61.5 39.5 C 61.5 39.5 58.5 40.128161 58.5 40.5 C 58.5 40.871839 61.5 41 61.5 41 C 61.5 41 59.841477 43.557386 63 43 C 66.158523 42.442614 66.068116 40.672754 69 39.5 C 71.931884 38.327246 73.463031 38.47183 76.5 37.5 C 79.536969 36.52817 82.000001 35.999999 83.5 35 C 84.999999 34.000001 85.500004 31.499998 89.5 29.5 C 93.499996 27.500002 94.639612 28.003076 97 28.5 C 99.360388 28.996924 99.5 31.500001 99.5 32.5 C 99.5 33.499999 99 36 99 36 C 99 36 98.075136 34.884973 97.5 35 C 96.924864 35.115027 96.5 36.5 96.5 36.5 C 96.5 36.5 95.001527 35.641548 94 36.5 C 92.998473 37.358452 93 39.5 93 39.5 C 93 39.5 91.495186 38.514441 91 40 C 90.504814 41.485559 90.5 43.5 90.5 43.5 C 90.5 43.5 88.998304 39.668928 88 41 C 87.001696 42.331072 86.5 45 86.5 45 C 86.5 45 84.761965 43.476069 84.5 44 C 84.238035 44.523931 85.5 46.435649 85.5 46.5 C 85.5 46.628702 84.523931 45.476069 84 46 C 83.476069 46.523931 83.5 48.5 83.5 48.5 C 83.5 48.5 81.547996 44.578675 80.5 46.5 C 79.452004 48.421325 79.5 51 79.5 51 L 78 48.5 C 78 48.5 76.912849 49.123837 76.5 50.5 C 76.087151 51.876163 76.5 53.5 76.5 53.5 C 76.5 53.5 74.035549 51.571561 73.5 52 C 72.964451 52.428439 74 55 74 55 C 74 55 68.383109 54.627994 69.5 57.5 C 69.916635 58.571346 72.65867 59.294799 73.5 60 C 74.914061 61.185262 75 62 75 62 C 75 62 72.5 61.563089 72.5 62.5 C 72.5 63.436911 74.000001 64.5 75 65 C 75.999999 65.5 77.660592 64.830296 78 65 C 78.999999 65.5 80 67 80 67 C 80 67 76.5 67.000001 77 68 C 77.5 68.999999 79.500002 69.500002 82 72 C 84.499998 74.499998 89.5 80.5 89.5 80.5 L 89.5 93 C 89.5 93 88.968554 90 87.5 90 C 86.031446 90 85 91.5 85 91.5 C 85 91.5 85.461772 89.120221 84.5 89 C 83.538228 88.879779 82.5 90.5 82.5 90.5 C 82.5 90.5 82.949154 88.542374 82 88 C 81.050846 87.457626 79.5 88 79.5 88 C 79.5 88 80.801475 86.14118 80 85.5 C 79.198525 84.85882 77.5 85.5 77.5 85.5 C 77.5 85.5 78.520572 83.020572 78 82.5 C 77.479428 81.979428 76 83.5 76 83.5 C 76 83.5 74.999999 81 74 81 C 73.000001 81 73 82.5 73 82.5 C 73 82.5 71.55873 80.470547 70.5 80 C 69.44127 79.529453 68.5 80.5 68.5 80.5 L 66 77.5 C 64.750001 75.750002 63.58582 73.86194 62.5 73.5 C 61.41418 73.13806 60.5 75 60.5 75 C 60.5 75 57.988822 70.139663 57.5 70 C 57.011178 69.860337 55.711769 70.491193 56 71.5 C 56.288231 72.508807 57.5 73 57.5 73 C 57.5 73 56.700074 73.750184 57 74.5 C 57.299926 75.249816 58.5 75.5 58.5 75.5 C 58.5 75.5 56.112704 75.711073 56 76.5 C 55.887296 77.288927 58 79 58 79 C 58 79 55.407196 78.685607 55 79.5 C 54.592804 80.314393 56.5 82.5 56.5 82.5 C 56.5 82.5 54.869916 82.719495 55 83.5 C 55.130084 84.280505 57 85 57 85 C 57 85 54.5 87.000001 55 88.5 C 55.5 89.999999 57.879812 89.724765 60.5 93 C 63.120188 96.275235 71.5 109 71.5 109 C 71.5 109 69.5 108.26187 69.5 109.5 C 69.5 110.73813 70.299407 110.79856 71 112.5 C 71.700593 114.20144 71.5 117.5 71.5 117.5 C 71.5 117.5 69.41967 114.80055 69 115.5 C 68.58033 116.19945 69.380095 117.52038 70 120 C 70.619905 122.47962 72 125 72 125 C 72 125 69.623074 123.29231 69 123.5 C 68.376926 123.70769 70.124984 129.91304 77 133.5 C 80.170122 135.15398 83.783031 134.26936 86.5 134.5 C 89.675297 134.76955 91.730554 136.11388 92 138 C 92.5 141.5 85.499997 142.5 82.5 143 C 79.500003 143.5 81.28413 145.11391 76.5 145 C 71.71587 144.88609 71.218375 142.33803 67.5 142 C 63.781625 141.66197 61.928297 144.17576 59 143.5 C 56.071703 142.82424 55.415994 140.87197 55 139 C 54.584006 137.12803 56.223604 136.49645 57 134.5 C 57.776396 132.50355 58.73132 130.0783 58.5 129.5 C 58.26868 128.9217 56 132 56 132 C 56 132 55.451163 130.0093 56 128.5 C 56.548837 126.9907 58.272141 126.90821 58 126.5 C 57.727859 126.09179 55.5 126.5 55.5 126.5 C 55.5 126.5 56.356194 121.59366 56 121 C 55.643806 120.40634 54.5 123.5 54.5 123.5 C 54.5 123.5 54.389965 121.88997 54 121.5 C 53.723299 121.2233 52.5 121 52.5 121 C 52.5 121 55.103486 118.7244 55 118 C 54.896514 117.2756 52.5 118.5 52.5 118.5 C 52.5 118.5 54.179382 113.54351 53.5 113 C 52.820618 112.45649 50 116.5 50 116.5 L 49.5 111.5 C 49.5 111.5 52.620256 110.36077 52 108.5 C 51.379744 106.63923 49.549165 105.69076 48.5 105.5 C 47.450835 105.30924 46.5 107.5 46.5 107.5 C 46.5 107.5 44.293741 101.27322 43.5 101.5 C 42.706259 101.72678 42.5 105 42.5 105 C 42.5 105 40.841544 102.77996 40.5 105 C 40.158456 107.22004 41.5 111.5 41.5 111.5 C 41.5 111.5 39.999999 109.5 39 110 C 38.000001 110.5 39 117.5 39 117.5 C 39 117.5 38.090804 115.50019 37 117.5 C 35.909196 119.49981 36 123 36 123 C 36 123 34.999999 121.5 34 122 C 33.423003 122.2885 33.229871 124.61761 32 126.5 C 31.098371 127.88 29 129 29 129 C 29 129 29.210651 125.78426 28.5 125.5 C 27.789349 125.21574 27.881737 127.3387 27 128 C 26.118263 128.6613 25.310631 127.20299 24.5 128.5 C 23.689369 129.79701 24 132 24 132 C 24 132 21.611697 129.47076 21 131 C 20.7151 131.71225 21.823643 133.26046 22 134.5 C 22.202293 135.92183 22 137 22 137 C 22 137 18.962349 133.99096 19.5 136.5 C 20.037651 139.00904 20.500003 143 23.5 144 C 26.499997 145 30.751823 146.13867 31 148 C 31.248177 149.86133 30.810073 151.75139 29.5 152.5 C 28.189927 153.24861 26.024033 152 24.5 152 C 22.975967 152 22.999997 153 20 153 C 17.000003 153 15.297579 152.14222 13 149.5 C 10.702421 146.85778 11.619127 145.40486 9 142 C 6.3808734 138.59514 2.999999 137.5 2 136.5 C 1.000001 135.5 0.137468 133.77008 1.5 130.5 C 2.862532 127.22992 6.500001 128 7.5 127.5 C 8.499999 127 9.7569254 125.10554 9 124.5 C 8.2430746 123.89446 6 125 6 125 C 6 125 5.2258078 123.62144 8 121.5 C 10.774192 119.37856 14.02572 119.06914 14.5 118.5 C 14.97428 117.93086 10.5 117.5 10.5 117.5 C 10.5 117.5 18.253628 113.3877 18 112.5 C 17.746372 111.6123 15 112 15 112 C 15 112 20.5 108 20 106 C 19.5 104 10.912217 101.86148 9 95 C 7.0877831 88.138516 14.677643 74.593247 15 69.5 C 15.056251 68.611234 14.48263 67.238819 15 66 C 15.592591 64.581067 16.766942 61.800826 16.5 61 C 16 59.500001 11.363919 56.473095 11 56 C 10.636081 55.526905 11.5 55 11.5 54.5 C 11.5 54 10.862168 54.05133 11 53.5 C 11.137832 52.94867 11.890706 52.937177 12 52.5 C 12.109294 52.062823 10.614924 52.07462 10.5 51.5 C 10.385076 50.92538 11.296681 50.593363 11 50 C 10.703319 49.406637 8.9898265 50.350289 9.5 49.5 C 10.010173 48.649711 11.733057 47.900415 12 47.5 C 12.266943 47.099585 9.4217642 43.405022 12 44 C 14.578236 44.594978 18 48 18 48 C 18 48 23.499999 53.000007 22.5 60 C 21.935128 63.954107 18.335725 72.428711 16 80 C 14.200769 85.832237 13.34731 91.106804 14 93.5 C 15.499999 98.999994 22.205854 95.284388 22.5 94.5 C 22.794146 93.715612 20 93.5 20 93.5 C 20 93.5 26.93328 88.577707 26.5 88 C 26.06672 87.422293 23 88 23 88 C 23 88 23.446868 86.259827 25.5 84.5 C 27.553132 82.740173 30.160246 82.594569 30.5 82 C 30.839754 81.405431 28 81 28 81 C 28 81 30.707916 79.973612 31 79 C 31.292084 78.026388 30 76.5 30 76.5 C 30 76.5 33.5 73.499999 33 72.5 C 32.5 71.500001 29 74 29 74 C 29 74 28.567484 71.432516 31 69 C 33.432516 66.567484 36.580793 66.08689 37 65.5 C 37.419207 64.91311 34 65.5 34 65.5 L 35.978516 61.542969 C 37.500076 57.999849 35.749999 58 35 58 C 34.250001 58 33.5 61.5 33.5 61.5 C 33.5 61.5 32.54413 59.733199 32 59.5 C 31.377465 59.233199 30 59.5 30 59.5 C 30 59.5 30.844099 55.802897 30.5 55 C 30.155901 54.197103 28.5 56 28.5 56 C 28.5 56 29.44915 52.2966 29 50.5 C 28.55085 48.7034 27.31733 47.693501 26.5 48 C 25.68267 48.306499 26 51 26 51 C 26 51 23 47 23.5 46.5 C 24.505445 46.5 25.615299 44.037695 25.5 43 C 25.384701 41.962305 23 42 23 42 C 23 42 25.391164 38.782329 25 38 C 24.608836 37.217671 21.5 39 21.5 39 C 21.5 39 21.041762 36.790686 21.5 34.5 C 21.82609 32.869912 23.160067 31.100252 23 30.5 C 22.614998 29.056242 20 32 20 32 C 20 32 18.939182 29.516021 19.5 27.5 C 19.917836 25.997969 21.5 24.902964 21.5 24.5 C 21.5 23.556179 19.5 23.5 19.5 23.5 C 19.5 23.5 20.270544 22.002668 21.5 20.5 C 22.729456 18.997332 24.647611 18.647611 24 18 C 23.352389 17.352389 21 17.5 21 17.5 C 21 17.5 21.816586 15.785276 23.5 14.5 C 25.1801 13.217254 27.72677 12.364306 28 12 C 28.546998 11.270669 25.5 11.5 25.5 11.5 C 25.5 11.5 26.882221 9.2941672 29 8.5 C 31.117779 7.7058328 33.102 8.4975004 33.5 8 C 33.898 7.5024996 30.5 6.5 30.5 6.5 C 30.5 6.5 31.781704 5.3124175 33.5 5 C 35.218296 4.6875825 36.5 5 36.5 5 C 36.5 5 36.625953 3.7047445 38.5 2.5 C 39.141423 2.0876566 41.000001 1.9999995 42 1.5 C 42.999999 1.0000005 44.0134 0 45 0 z M 48.998047 15.871094 C 47.636578 15.789327 45.107445 17.140443 45 18 C 44.877206 18.982351 47.888012 19.494217 49 19 C 50.111988 18.505783 50.590802 16.606001 49.5 16 C 49.36365 15.92425 49.192542 15.882775 48.998047 15.871094 z "
         style="fill:#f3f6f8"
         inkscape:label="path136" />
    </g>
    <path
       d="M154.5,143 L141,143 C139.811647,143 141.989042,140.956942 143,140 C144.994888,138.1117 150,133.5 147.5,132.5 C144.486224,131.294489 131.5,132.5 127.5,129 C125.022171,126.831899 131.733766,126.283738 135.5,123.5 C147,115 138,118 130,115.5 C122,113 129.5,114 138.5,107 C147.5,100 141.5,102.5 133,100.5 C124.5,98.5 136,97 142,90 C148,83 143,84.5 135,82.5 C127,80.5 139.5,79 145.5,73 C151.5,67 151.5,60 154.5,57 C154.58898,56.9110199 154.672682,56.9029738 154.75134,56.9711391 C154.811531,56.9255516 154.874461,56.9342338 154.940227,57 C157.940227,60 157.940227,67 163.940227,73 C169.940227,79 182.440227,80.5 174.440227,82.5 C166.440227,84.5 161.440227,83 167.440227,90 C173.440227,97 184.940227,98.5 176.440227,100.5 C167.940227,102.5 161.940227,100 170.940227,107 C179.940227,114 187.440227,113 179.440227,115.5 C171.440227,118 162.440227,115 173.940227,123.5 C177.706461,126.283738 184.418057,126.831899 181.940227,129 C177.940227,132.5 164.954004,131.294489 161.940227,132.5 C159.440227,133.5 164.445339,138.1117 166.440227,140 C167.451185,140.956942 169.62858,143 168.440227,143 L154.5,143 Z"
       fill="#008A59"
       id="path142"
       style="fill:#f3f6f8" />
    <path
       d="M156,50 L182.009433,50 L182.009433,46.9999852 L188,46.9999852 C188,46.9999852 189.171151,50.2763918 192.5,53 C195.828849,55.7236082 199,56 199,56 C199,56 199.5,106 198.5,110.5 C197.5,115 195.5,129 183.5,141.5 C171.5,154 155.5,162 155.5,162 L155.5,156 C155.5,156 169.277167,149.370959 180.388584,137.68548 C191.5,126 194.5,107 194.5,107 L194.5,60 C194.5,60 192.5,59.5 189,56.5 C185.5,53.5 186,53 185.5,53 C185,53 184,55 184,55 C174.372725,55 156,55 156,55 L156,50 Z M156,50 L129.115567,50 L129.115567,46.9999852 L123.125,46.9999852 C123.125,46.9999852 121.953849,50.2763918 118.625,53 C115.296151,55.7236082 112.125,56 112.125,56 C112.125,56 111.625,106 112.625,110.5 C113.625,115 115.625,129 127.625,141.5 C139.625,154 155.5,162 155.5,162 L155.5,156 C155.5,156 141.847833,149.370959 130.736416,137.68548 C119.625,126 116.625,107 116.625,107 L116.625,60 C116.625,60 118.625,59.5 122.125,56.5 C125.625,53.5 125.125,53 125.625,53 C126.125,53 127.125,55 127.125,55 C136.752275,55 156,55 156,55 L156,50 Z"
       fill="#323989"
       id="path144"
       style="fill:#f3f6f8" />
    <path
       id="path146"
       style="fill:#f3f6f8"
       d="M 127.10156 149.72656 C 126.34375 149.75 125.5 149.875 124.5 150 C 120.5 150.5 111.35986 155.04531 93.5 159 C 75.640137 162.95469 62.486344 164.28693 54.5 165 C 46.513656 165.71307 28.853591 160.00767 22 159.5 C 15.146409 158.99233 7.5 166 7.5 166 L 11.5 166 L 8.5 168 L 13 168 L 10.5 170 L 14.5 170 L 11 172.5 L 14.5 172 L 11.5 174.5 L 14.5 174 L 11.5 176 L 14.5 176 L 11 179 C 11 179 20.34929 177 22 177 C 26.999985 177 38.500058 182.5 58 182 C 77.499942 181.5 108.00006 175.49997 124 169 C 139.99994 162.50003 126 172 126 172 C 126 172 113 178 111.5 182 C 110 186 110.5 195 114.5 195.5 C 118.5 196 156.5 195 156.5 195 C 156.50165 195.00004 193.01379 195.99999 197.01367 195.5 C 201.01367 195 201.51367 186 200.01367 182 C 198.51367 178 185.51367 172 185.51367 172 C 185.51367 172 171.51373 162.50003 187.51367 169 C 203.51364 175.49997 234.01373 181.5 253.51367 182 C 273.01361 182.5 284.5137 177 289.51367 177 C 291.16439 177 300.51367 179 300.51367 179 L 297.01367 176 L 300.01367 176 L 297.01367 174 L 300.01367 174.5 L 297.01367 172 L 300.51367 172.5 L 297.01367 170 L 301.01367 170 L 298.51367 168 L 303.01367 168 L 300.01367 166 L 304.01367 166 C 304.01367 166 296.36728 158.99233 289.51367 159.5 C 282.66009 160.00767 265.00001 165.71307 257.01367 165 C 249.02733 164.28693 235.87353 162.95469 218.01367 159 C 200.15381 155.04531 191.01367 150.5 187.01367 150 C 183.0137 149.5 181.51367 149.00003 178.01367 155 C 174.5137 160.99997 176.01367 169.5 178.01367 173 C 180.01367 176.5 183.13197 178.4926 183.01367 179 C 182.89537 179.5074 156.5 178.99219 156.5 178.99219 L 156.5 179 C 156.5 179 128.6183 179.5074 128.5 179 C 128.3817 178.4926 131.5 176.5 133.5 173 C 135.5 169.5 137 160.99997 133.5 155 C 130.875 150.5 129.375 149.65625 127.10156 149.72656 z M 121.07422 155.91211 L 124.12695 165.51367 L 122.11914 166.15234 L 116.0293 160.57812 L 118.19727 167.39844 L 116.32812 167.99219 L 113.27539 158.39062 L 115.38086 157.7207 L 121.33594 163.20898 L 119.20508 156.50586 L 121.07422 155.91211 z M 201.75391 159.05078 L 203.74023 159.75195 L 200.99023 167.54492 L 205.69727 169.20508 L 205.09375 170.91406 L 198.40234 168.55273 L 201.75391 159.05078 z M 108.84766 159.78906 L 111.62695 169.47461 L 109.61719 170.05078 L 106.83789 160.36523 L 108.84766 159.78906 z M 212.17383 162.2207 L 219.29883 164.18359 L 218.82422 165.9043 L 213.68359 164.48633 L 213.11523 166.55078 L 217.83398 167.84961 L 217.36914 169.53711 L 212.65039 168.23633 L 211.96289 170.73438 L 217.33984 172.2168 L 216.85938 173.96289 L 209.49805 171.93555 L 212.17383 162.2207 z M 100.12305 162.3125 C 100.66055 162.35785 101.1551 162.49711 101.60547 162.72852 C 102.5062 163.19132 103.11696 163.88274 103.44141 164.80469 L 101.42188 165.25977 C 101.11506 164.62348 100.62957 164.23994 99.964844 164.10938 C 99.593907 164.03877 99.20058 164.0514 98.787109 164.14453 C 97.995734 164.32278 97.413432 164.76783 97.039062 165.48047 C 96.664693 166.19311 96.612433 167.14921 96.882812 168.34961 C 97.155195 169.5589 97.624609 170.35225 98.289062 170.73047 C 98.953516 171.10868 99.635434 171.21877 100.33789 171.06055 C 101.02701 170.90533 101.54792 170.57908 101.89844 170.08203 C 102.24896 169.58498 102.40232 169.00363 102.35938 168.33594 L 100.08594 168.84766 L 99.716797 167.20703 L 103.81055 166.28516 L 104.99805 171.56055 L 103.63867 171.86719 L 103.1543 170.68555 C 102.86376 171.24149 102.58315 171.65179 102.31055 171.91406 C 101.84325 172.36968 101.21325 172.68503 100.42188 172.86328 C 99.119219 173.15669 97.950689 172.94573 96.916016 172.23047 C 95.844773 171.51877 95.131841 170.37659 94.777344 168.80273 C 94.418841 167.21109 94.570925 165.83728 95.230469 164.67969 C 95.890013 163.52209 96.938426 162.78149 98.378906 162.45703 C 99.003559 162.31633 99.585542 162.26715 100.12305 162.3125 z M 89.898438 164.82031 L 91.525391 174.76562 L 89.447266 175.10352 L 84.230469 168.70508 L 85.384766 175.76758 L 83.449219 176.08594 L 81.824219 166.14062 L 84.001953 165.78516 L 89.097656 172.08008 L 87.962891 165.13672 L 89.898438 164.82031 z M 223.34961 164.84961 L 225.39648 165.27734 L 223.3418 175.14062 L 221.29297 174.71484 L 223.34961 164.84961 z M 283.08203 165.24609 L 283.42188 166.99805 L 280.46289 167.57227 L 282.04297 175.71289 L 279.96289 176.11719 L 278.38281 167.97656 L 275.41016 168.55469 L 275.06836 166.80273 L 283.08203 165.24609 z M 30.953125 165.34375 L 32.929688 166.00977 L 31.703125 169.65039 L 35.435547 170.90625 L 36.660156 167.26562 L 38.642578 167.93359 L 35.427734 177.48242 L 33.445312 176.81445 L 34.880859 172.55273 L 31.148438 171.29688 L 29.714844 175.55859 L 27.738281 174.89453 L 30.953125 165.34375 z M 233.49609 166.6875 L 235.57031 167.04688 L 234.375 173.95703 C 234.229 174.80127 233.96716 175.44518 233.58984 175.88867 C 232.95143 176.63851 231.98804 176.90256 230.69922 176.67969 C 229.4104 176.45681 228.60446 175.96874 228.28125 175.2168 C 227.95804 174.46485 227.8977 173.50546 228.09961 172.33789 L 228.13867 172.10938 L 230.09961 172.44727 L 230.06055 172.67578 C 229.94572 173.44679 229.93674 174.00173 230.0332 174.33984 C 230.12967 174.67796 230.424 174.89114 230.91797 174.97656 C 231.40745 175.06121 231.76037 174.94497 231.97656 174.63086 C 232.10581 174.44509 232.21183 174.11331 232.29492 173.63281 L 233.49609 166.6875 z M 77.302734 166.87109 L 78.580078 176.86719 L 76.505859 177.13281 L 75.226562 167.13672 L 77.302734 166.87109 z M 243.51562 167.64453 C 243.83674 167.6325 244.17753 167.64597 244.53516 167.6875 C 245.96563 167.8536 247.01217 168.36992 247.67773 169.23633 C 248.58053 170.27251 248.92578 171.70762 248.71289 173.54102 C 248.50421 175.33817 247.83916 176.65618 246.71875 177.49414 C 245.87235 178.18498 244.73519 178.44735 243.30469 178.28125 C 241.87419 178.11515 240.82574 177.59883 240.16016 176.73242 C 239.25704 175.6595 238.91046 174.22491 239.11914 172.42773 C 239.33203 170.59436 239.99841 169.27582 241.11914 168.47461 C 241.75394 167.95648 242.55229 167.68063 243.51562 167.64453 z M 42.078125 167.73047 L 49.390625 168.80469 L 49.130859 170.56836 L 43.855469 169.79492 L 43.544922 171.91211 L 48.386719 172.62305 L 48.132812 174.35352 L 43.291016 173.64258 L 42.914062 176.20703 L 48.433594 177.01758 L 48.169922 178.80859 L 40.615234 177.70117 L 42.078125 167.73047 z M 270.44727 167.77148 L 274.66797 177.5918 L 272.39062 177.74219 L 271.60547 175.7168 L 267.90234 175.96094 L 267.3418 178.07227 L 265.14648 178.2168 L 268.07422 167.92773 L 270.44727 167.77148 z M 67.363281 167.77734 C 68.423491 167.7183 69.343232 167.94848 70.123047 168.46875 C 70.902862 168.98902 71.341544 169.78233 71.4375 170.84961 L 69.416016 170.96289 C 69.345908 170.35973 69.058354 169.94424 68.552734 169.7168 C 68.215739 169.56668 67.803284 169.50609 67.316406 169.5332 C 66.774925 169.56336 66.349967 169.69524 66.039062 169.93164 C 65.728158 170.16805 65.583674 170.48172 65.605469 170.87305 C 65.625489 171.23252 65.798552 171.49262 66.126953 171.65234 C 66.338304 171.75925 66.78318 171.87409 67.460938 171.99609 L 69.21875 172.31641 C 69.98878 172.4561 70.574764 172.66785 70.978516 172.95117 C 71.605506 173.39095 71.944216 174.05868 71.994141 174.95508 C 72.045332 175.87423 71.735589 176.65612 71.066406 177.30273 C 70.397223 177.94935 69.421845 178.30939 68.138672 178.38086 C 66.828197 178.45385 65.780211 178.21084 64.996094 177.6543 C 64.211976 177.09775 63.790709 176.29656 63.732422 175.25 L 65.740234 175.13867 C 65.829534 175.5947 65.972643 175.93131 66.171875 176.14844 C 66.536206 176.5435 67.132791 176.718 67.960938 176.67188 C 68.456916 176.64425 68.856821 176.56785 69.160156 176.44141 C 69.735482 176.1994 70.006287 175.79339 69.974609 175.22461 C 69.95611 174.89244 69.797447 174.64431 69.496094 174.47852 C 69.194994 174.31727 68.728644 174.18577 68.097656 174.08398 L 67.019531 173.9043 C 65.959794 173.72597 65.222522 173.50917 64.806641 173.25391 C 64.102803 172.82754 63.722961 172.12022 63.667969 171.13281 C 63.617791 170.23186 63.903352 169.46461 64.525391 168.83203 C 65.14743 168.19945 66.093759 167.84805 67.363281 167.77734 z M 253.06836 168.38281 L 255.27539 168.45703 L 259.05078 175.62109 L 259.28711 168.5918 L 261.24609 168.65625 L 260.91016 178.72656 L 258.80469 178.65625 L 254.93164 171.36523 L 254.69336 178.51953 L 252.73242 178.45312 L 253.06836 168.38281 z M 53.136719 168.52539 L 55.242188 168.58398 L 55.011719 176.8457 L 60 176.98438 L 59.949219 178.79492 L 52.857422 178.59766 L 53.136719 168.52539 z M 243.73242 169.44922 C 243.16061 169.49895 242.66158 169.73111 242.23828 170.14648 C 241.67389 170.70032 241.32815 171.54077 241.19727 172.66797 C 241.06638 173.79517 241.21034 174.6929 241.63281 175.36133 C 242.05528 176.02975 242.68134 176.41162 243.50977 176.50781 C 244.33817 176.60401 245.03224 176.37494 245.58984 175.82031 C 246.14745 175.26569 246.49021 174.42602 246.62109 173.29883 C 246.75145 172.17616 246.60878 171.27926 246.19336 170.60938 C 245.77794 169.93947 245.15655 169.55713 244.32812 169.46094 C 244.12104 169.43689 243.92302 169.43264 243.73242 169.44922 z M 269.39062 170.14844 L 268.35547 174.19141 L 270.90625 174.02344 L 269.39062 170.14844 z M 163.3125 181 L 165.09766 181 L 165.09766 182.7793 L 163.3125 182.7793 L 163.3125 181 z M 170.04688 181 L 171.83203 181 L 171.83203 182.7793 L 170.04688 182.7793 L 170.04688 181 z M 138.12891 182.42383 L 145.51758 182.42383 L 145.51758 184.20898 L 140.18555 184.20898 L 140.18555 186.34766 L 145.08008 186.34766 L 145.08008 188.09766 L 140.18555 188.09766 L 140.18555 190.68945 L 145.76367 190.68945 L 145.76367 192.5 L 138.12891 192.5 L 138.12891 182.42383 z M 150.45117 182.42383 L 155.39453 182.42383 C 156.10091 182.4375 156.64486 182.52409 157.02539 182.68359 C 157.40593 182.8431 157.72786 183.07682 157.99219 183.38672 C 158.21094 183.64193 158.38411 183.92643 158.51172 184.23633 C 158.63932 184.54622 158.70313 184.89844 158.70312 185.29492 C 158.70312 185.77344 158.58138 186.24446 158.33984 186.70703 C 158.09831 187.1696 157.70052 187.49609 157.14453 187.6875 C 157.60938 187.87435 157.93913 188.1403 158.13281 188.48438 C 158.3265 188.82844 158.42383 189.35221 158.42383 190.05859 L 158.42383 190.73633 C 158.42383 191.19662 158.4401 191.50976 158.47656 191.67383 C 158.53125 191.93359 158.66081 192.12305 158.86133 192.24609 L 158.86133 192.5 L 156.54297 192.5 C 156.47917 192.27669 156.43359 192.09766 156.40625 191.96094 C 156.35156 191.67838 156.32292 191.38802 156.31836 191.0918 L 156.30469 190.1543 C 156.29557 189.51172 156.17676 189.08333 155.95117 188.86914 C 155.72559 188.65495 155.30339 188.54883 154.68359 188.54883 L 152.50977 188.54883 L 152.50977 192.5 L 150.45117 192.5 L 150.45117 182.42383 z M 166.39844 182.42383 L 168.77734 182.42383 L 172.34766 192.5 L 170.06445 192.5 L 169.41406 190.42969 L 165.70117 190.42969 L 165.00586 192.5 L 162.80469 192.5 L 166.39844 182.42383 z M 152.50977 184.17383 L 152.50977 186.88086 L 154.89648 186.88086 C 155.37044 186.88086 155.72396 186.82617 155.96094 186.7168 C 156.38021 186.52539 156.58984 186.14714 156.58984 185.58203 C 156.58984 184.97135 156.38802 184.5612 155.98242 184.35156 C 155.75456 184.23307 155.41276 184.17383 154.95703 184.17383 L 152.50977 184.17383 z M 167.56836 184.72656 L 166.26953 188.69336 L 168.82617 188.69336 L 167.56836 184.72656 z M 175.88086 186.67383 L 179.80469 186.67383 L 179.80469 188.51953 L 175.88086 188.51953 L 175.88086 186.67383 z " />
    <g
       transform="translate(27.000000, 155.000000)"
       fill="#f3f6f8"
       id="g150" />
    <g
       transform="translate(198.000000, 159.000000)"
       fill="#f3f6f8"
       id="g156" />
  </g>
</svg>
