<?xml version="1.0" encoding="UTF-8" standalone="no"?>
<svg width="313px" height="205px" viewBox="0 0 313 205" version="1.1" xmlns="http://www.w3.org/2000/svg" xmlns:xlink="http://www.w3.org/1999/xlink">
    <g stroke="none" stroke-width="1" fill="none">
        <g transform="translate(23.000000, 9.000000)">
            <path d="M63,23 C63,24 62.25,25.5 61.5,25.5 C60.75,25.5 60,23 60,23 C60,23 57.3791902,22.4724859 56.5,23 C55.6208098,23.5275141 54.6580478,25.1793148 55,26 C55.4913812,27.1793148 57.9197643,28.8065881 58.5,29 C59.0802357,29.1934119 59.5,27 59.5,27 C59.5,27 60.6097276,27.6097276 61,28 C61.6097276,28.6097276 62.9998859,30.8334221 61.5,32 C60.0001141,33.1665779 51.0840547,29.5803003 50,29.5 C48.9159453,29.4196997 48.5,31.5 48.5,31.5 C48.5,31.5 46.23726,29.64411 46,30 C45.76274,30.35589 47,32.5 47,32.5 C47,32.5 50.6571915,32.8628766 53.5,34 C56.3428085,35.1371234 57.5,36.5 57.5,36.5 C57.5,36.5 54.5334301,36.5334301 55,37 C55.4665699,37.4665699 59,38 59,38 C59,38 58.7251363,38.8350818 59,39 C59.5584696,39.3350818 61.5,39.5 61.5,39.5 C61.5,39.5 58.5,40.1281604 58.5,40.5 C58.5,40.8718396 61.5,41 61.5,41 C61.5,41 59.8414737,43.557387 63,43 C66.1585263,42.442613 66.0681133,40.6727547 69,39.5 C71.9318867,38.3272453 73.4630279,38.4718311 76.5,37.5 C79.5369721,36.5281689 82,36 83.5,35 C85,34 85.5,31.5 89.5,29.5 C93.5,27.5 94.6396097,28.0030757 97,28.5 C99.3603903,28.9969243 99.5,31.5 99.5,32.5 C99.5,33.5 99,36 99,36 C99,36 98.0751363,34.8849727 97.5,35 C96.9248637,35.1150273 96.5,36.5 96.5,36.5 C96.5,36.5 95.0015278,35.6415476 94,36.5 C92.9984722,37.3584524 93,39.5 93,39.5 C93,39.5 91.4951869,38.5144392 91,40 C90.5048131,41.4855608 90.5,43.5 90.5,43.5 C90.5,43.5 88.9983049,39.6689268 88,41 C87.0016951,42.3310732 86.5,45 86.5,45 C86.5,45 84.7619655,43.4760689 84.5,44 C84.2380345,44.5239311 85.5,46.4356489 85.5,46.5 C85.5,46.6287022 84.5239311,45.4760689 84,46 C83.4760689,46.5239311 83.5,48.5 83.5,48.5 C83.5,48.5 81.5479967,44.5786727 80.5,46.5 C79.4520033,48.4213273 79.5,51 79.5,51 L78,48.5 C78,48.5 76.9128493,49.1238355 76.5,50.5 C76.0871507,51.8761645 76.5,53.5 76.5,53.5 C76.5,53.5 74.0355493,51.5715605 73.5,52 C72.9644507,52.4284395 74,55 74,55 C74,55 68.3831077,54.6279913 69.5,57.5 C69.916635,58.5713472 72.6586694,59.2947987 73.5,60 C74.9140622,61.1852635 75,62 75,62 C75,62 72.5,61.5630876 72.5,62.5 C72.5,63.4369124 74,64.5 75,65 C76,65.5 77.660592,64.830296 78,65 C79,65.5 80,67 80,67 C80,67 76.5,67 77,68 C77.5,69 79.5,69.5 82,72 C84.5,74.5 89.5,80.5 89.5,80.5 L89.5,93 C89.5,93 88.9685554,90 87.5,90 C86.0314446,90 85,91.5 85,91.5 C85,91.5 85.4617725,89.1202216 84.5,89 C83.5382275,88.8797784 82.5,90.5 82.5,90.5 C82.5,90.5 82.9491554,88.5423745 82,88 C81.0508446,87.4576255 79.5,88 79.5,88 C79.5,88 80.8014763,86.1411811 80,85.5 C79.1985237,84.8588189 77.5,85.5 77.5,85.5 C77.5,85.5 78.5205722,83.0205722 78,82.5 C77.4794278,81.9794278 76,83.5 76,83.5 C76,83.5 75,81 74,81 C73,81 73,82.5 73,82.5 C73,82.5 71.5587315,80.4705474 70.5,80 C69.4412685,79.5294526 68.5,80.5 68.5,80.5 L66,77.5 C64.75,75.75 63.585821,73.8619403 62.5,73.5 C61.414179,73.1380597 60.5,75 60.5,75 C60.5,75 57.9888221,70.1396635 57.5,70 C57.0111779,69.8603365 55.7117691,70.491192 56,71.5 C56.2882309,72.508808 57.5,73 57.5,73 C57.5,73 56.7000734,73.7501835 57,74.5 C57.2999266,75.2498165 58.5,75.5 58.5,75.5 C58.5,75.5 56.1127039,75.7110724 56,76.5 C55.8872961,77.2889276 58,79 58,79 C58,79 55.4071969,78.6856063 55,79.5 C54.5928031,80.3143937 56.5,82.5 56.5,82.5 C56.5,82.5 54.8699158,82.7194946 55,83.5 C55.1300842,84.2805054 57,85 57,85 C57,85 54.5,87 55,88.5 C55.5,90 57.8798091,89.7247614 60.5,93 C63.1201909,96.2752386 71.5,109 71.5,109 C71.5,109 69.5,108.261864 69.5,109.5 C69.5,110.738136 70.299406,110.798557 71,112.5 C71.700594,114.201443 71.5,117.5 71.5,117.5 C71.5,117.5 69.41967,114.80055 69,115.5 C68.58033,116.19945 69.3800943,117.520377 70,120 C70.6199057,122.479623 72,125 72,125 C72,125 69.6230745,123.292308 69,123.5 C68.3769255,123.707692 70.1249776,129.913032 77,133.5 C80.1701255,135.153979 83.7830281,134.26936 86.5,134.5 C89.6753003,134.769547 91.7305538,136.113877 92,138 C92.5,141.5 85.5,142.5 82.5,143 C79.5,143.5 81.2841347,145.113908 76.5,145 C71.7158653,144.886092 71.2183789,142.338034 67.5,142 C63.7816211,141.661966 61.9282999,144.175762 59,143.5 C56.0717001,142.824238 55.4159941,140.871974 55,139 C54.5840059,137.128026 56.2236036,136.496448 57,134.5 C57.7763964,132.503552 58.7313199,130.0783 58.5,129.5 C58.2686801,128.9217 56,132 56,132 C56,132 55.4511626,130.009303 56,128.5 C56.5488374,126.990697 58.2721408,126.908211 58,126.5 C57.7278592,126.091789 55.5,126.5 55.5,126.5 C55.5,126.5 56.3561947,121.593658 56,121 C55.6438053,120.406342 54.5,123.5 54.5,123.5 C54.5,123.5 54.3899656,121.889966 54,121.5 C53.7232989,121.223299 52.5,121 52.5,121 C52.5,121 55.1034863,118.724404 55,118 C54.8965137,117.275596 52.5,118.5 52.5,118.5 C52.5,118.5 54.1793824,113.543506 53.5,113 C52.8206176,112.456494 50,116.5 50,116.5 L49.5,111.5 C49.5,111.5 52.620257,110.360771 52,108.5 C51.379743,106.639229 49.5491658,105.690757 48.5,105.5 C47.4508342,105.309243 46.5,107.5 46.5,107.5 C46.5,107.5 44.2937417,101.273217 43.5,101.5 C42.7062583,101.726783 42.5,105 42.5,105 C42.5,105 40.8415442,102.779962 40.5,105 C40.1584558,107.220038 41.5,111.5 41.5,111.5 C41.5,111.5 40,109.5 39,110 C38,110.5 39,117.5 39,117.5 C39,117.5 38.0908053,115.50019 37,117.5 C35.9091947,119.49981 36,123 36,123 C36,123 35,121.5 34,122 C33.4230021,122.288499 33.2298718,124.617606 32,126.5 C31.0983704,127.879999 29,129 29,129 C29,129 29.2106518,125.784261 28.5,125.5 C27.7893482,125.215739 27.8817375,127.338697 27,128 C26.1182625,128.661303 25.3106318,127.202989 24.5,128.5 C23.6893682,129.797011 24,132 24,132 C24,132 21.6116979,129.470755 21,131 C20.7151002,131.71225 21.8236428,133.260461 22,134.5 C22.2022929,135.921829 22,137 22,137 C22,137 18.9623488,133.990961 19.5,136.5 C20.0376512,139.009039 20.5,143 23.5,144 C26.5,145 30.7518224,146.138668 31,148 C31.2481776,149.861332 30.810074,151.751386 29.5,152.5 C28.189926,153.248614 26.0240344,152 24.5,152 C22.9759656,152 23,153 20,153 C17,153 15.2975809,152.142218 13,149.5 C10.7024191,146.857782 11.6191292,145.404868 9,142 C6.38087078,138.595132 3,137.5 2,136.5 C1,135.5 0.137466636,133.77008 1.5,130.5 C2.86253336,127.22992 6.5,128 7.5,127.5 C8.5,127 9.75692619,125.105541 9,124.5 C8.24307381,123.894459 6,125 6,125 C6,125 5.22580503,123.621443 8,121.5 C10.774195,119.378557 14.0257192,119.069137 14.5,118.5 C14.9742808,117.930863 10.5,117.5 10.5,117.5 C10.5,117.5 18.2536279,113.387698 18,112.5 C17.7463721,111.612302 15,112 15,112 C15,112 20.5,108 20,106 C19.5,104 10.9122189,101.861491 9,95 C7.08778114,88.1385088 14.6776422,74.5932525 15,69.5 C15.0562511,68.6112332 14.4826295,67.2388204 15,66 C15.5925917,64.5810657 16.7669423,61.8008269 16.5,61 C16,59.5 11.3639195,56.4730954 11,56 C10.6360805,55.5269046 11.5,55 11.5,54.5 C11.5,54 10.8621675,54.0513302 11,53.5 C11.1378325,52.9486698 11.8907057,52.9371771 12,52.5 C12.1092943,52.0628229 10.6149242,52.0746209 10.5,51.5 C10.3850758,50.9253791 11.2966817,50.5933634 11,50 C10.7033183,49.4066366 8.98982602,50.35029 9.5,49.5 C10.010174,48.64971 11.7330564,47.9004153 12,47.5 C12.2669436,47.0995847 9.42176164,43.4050219 12,44 C14.5782384,44.5949781 18,48 18,48 C18,48 23.5,53 22.5,60 C21.9351271,63.9541106 18.3357273,72.428703 16,80 C14.2007669,85.8322428 13.3473094,91.1068012 14,93.5 C15.5,99 22.2058542,95.2843887 22.5,94.5 C22.7941458,93.7156113 20,93.5 20,93.5 C20,93.5 26.9332804,88.5777072 26.5,88 C26.0667196,87.4222928 23,88 23,88 C23,88 23.4468663,86.2598289 25.5,84.5 C27.5531337,82.7401711 30.1602461,82.5945693 30.5,82 C30.8397539,81.4054307 28,81 28,81 C28,81 30.7079161,79.9736129 31,79 C31.2920839,78.0263871 30,76.5 30,76.5 C30,76.5 33.5,73.5 33,72.5 C32.5,71.5 29,74 29,74 C29,74 28.5674815,71.4325185 31,69 C33.4325185,66.5674815 36.5807922,66.0868909 37,65.5 C37.4192078,64.9131091 34,65.5 34,65.5 C34,65.5 35.318959,62.8620821 35.9784384,61.5431231 C37.5,58 35.75,58 35,58 C34.25,58 33.5,61.5 33.5,61.5 C33.5,61.5 32.5441307,59.7331989 32,59.5 C31.377464,59.2331989 30,59.5 30,59.5 C30,59.5 30.8440989,55.8028974 30.5,55 C30.1559011,54.1971026 28.5,56 28.5,56 C28.5,56 29.4491505,52.2966022 29,50.5 C28.5508495,48.7033978 27.3173309,47.6935009 26.5,48 C25.6826691,48.3064991 26,51 26,51 C26,51 23,47 23.5,46.5 C24.5054464,46.5 25.6152996,44.037696 25.5,43 C25.3847004,41.962304 23,42 23,42 C23,42 25.3911647,38.7823295 25,38 C24.6088353,37.2176705 21.5,39 21.5,39 C21.5,39 21.0417611,36.7906887 21.5,34.5 C21.8260899,32.8699106 23.1600673,31.1002525 23,30.5 C22.6149975,29.0562408 20,32 20,32 C20,32 18.9391817,29.5160228 19.5,27.5 C19.9178363,25.9979673 21.5,24.9029644 21.5,24.5 C21.5,23.5561784 19.5,23.5 19.5,23.5 C19.5,23.5 20.2705432,22.0026694 21.5,20.5 C22.7294568,18.9973306 24.6476115,18.6476115 24,18 C23.3523885,17.3523885 21,17.5 21,17.5 C21,17.5 21.8165845,15.7852774 23.5,14.5 C25.1801013,13.217253 27.7267702,12.3643064 28,12 C28.5469986,11.2706685 25.5,11.5 25.5,11.5 C25.5,11.5 26.8822187,9.29416797 29,8.5 C31.1177813,7.70583203 33.1019993,8.49750094 33.5,8 C33.8980007,7.50249906 30.5,6.5 30.5,6.5 C30.5,6.5 31.7817019,5.31241783 33.5,5 C35.2182981,4.68758217 36.5,5 36.5,5 C36.5,5 36.6259512,3.70474569 38.5,2.5 C39.1414237,2.08765622 41,2 42,1.5 C43,1 44.0133994,2.86232668e-14 45,2.84772206e-14 C46.5,2.84772206e-14 48.1351959,0.412010236 47.5,2 C46.8648041,3.58798976 45,3.5 45,5 C45,6.5 47.3308079,6.20948099 50,9 C52.6691921,11.790519 54,15.5 54,15.5 C55,17 56.8966427,17 58,17 C59.1033573,17 59.6478892,15.0943668 61,15.5 C62.3521108,15.9056332 63,17.5 63,19 L63,23 Z" fill="#008A59"></path>
            <path d="M49.5,16 C50.5908032,16.6060018 50.1119896,18.5057824 49,19 C47.8880104,19.4942176 44.877206,18.9823522 45,18 C45.122794,17.0176478 48.4091968,15.3939982 49.5,16 Z" fill="#FFFFFF"></path>
        </g>
        <g transform="translate(238.000000, 85.500000) scale(-1, 1) translate(-238.000000, -85.500000) translate(188.000000, 9.000000)">
            <path d="M63,23 C63,24 62.25,25.5 61.5,25.5 C60.75,25.5 60,23 60,23 C60,23 57.3791902,22.4724859 56.5,23 C55.6208098,23.5275141 54.6580478,25.1793148 55,26 C55.4913812,27.1793148 57.9197643,28.8065881 58.5,29 C59.0802357,29.1934119 59.5,27 59.5,27 C59.5,27 60.6097276,27.6097276 61,28 C61.6097276,28.6097276 62.9998859,30.8334221 61.5,32 C60.0001141,33.1665779 51.0840547,29.5803003 50,29.5 C48.9159453,29.4196997 48.5,31.5 48.5,31.5 C48.5,31.5 46.23726,29.64411 46,30 C45.76274,30.35589 47,32.5 47,32.5 C47,32.5 50.6571915,32.8628766 53.5,34 C56.3428085,35.1371234 57.5,36.5 57.5,36.5 C57.5,36.5 54.5334301,36.5334301 55,37 C55.4665699,37.4665699 59,38 59,38 C59,38 58.7251363,38.8350818 59,39 C59.5584696,39.3350818 61.5,39.5 61.5,39.5 C61.5,39.5 58.5,40.1281604 58.5,40.5 C58.5,40.8718396 61.5,41 61.5,41 C61.5,41 59.8414737,43.557387 63,43 C66.1585263,42.442613 66.0681133,40.6727547 69,39.5 C71.9318867,38.3272453 73.4630279,38.4718311 76.5,37.5 C79.5369721,36.5281689 82,36 83.5,35 C85,34 85.5,31.5 89.5,29.5 C93.5,27.5 94.6396097,28.0030757 97,28.5 C99.3603903,28.9969243 99.5,31.5 99.5,32.5 C99.5,33.5 99,36 99,36 C99,36 98.0751363,34.8849727 97.5,35 C96.9248637,35.1150273 96.5,36.5 96.5,36.5 C96.5,36.5 95.0015278,35.6415476 94,36.5 C92.9984722,37.3584524 93,39.5 93,39.5 C93,39.5 91.4951869,38.5144392 91,40 C90.5048131,41.4855608 90.5,43.5 90.5,43.5 C90.5,43.5 88.9983049,39.6689268 88,41 C87.0016951,42.3310732 86.5,45 86.5,45 C86.5,45 84.7619655,43.4760689 84.5,44 C84.2380345,44.5239311 85.5,46.4356489 85.5,46.5 C85.5,46.6287022 84.5239311,45.4760689 84,46 C83.4760689,46.5239311 83.5,48.5 83.5,48.5 C83.5,48.5 81.5479967,44.5786727 80.5,46.5 C79.4520033,48.4213273 79.5,51 79.5,51 L78,48.5 C78,48.5 76.9128493,49.1238355 76.5,50.5 C76.0871507,51.8761645 76.5,53.5 76.5,53.5 C76.5,53.5 74.0355493,51.5715605 73.5,52 C72.9644507,52.4284395 74,55 74,55 C74,55 68.3831077,54.6279913 69.5,57.5 C69.916635,58.5713472 72.6586694,59.2947987 73.5,60 C74.9140622,61.1852635 75,62 75,62 C75,62 72.5,61.5630876 72.5,62.5 C72.5,63.4369124 74,64.5 75,65 C76,65.5 77.660592,64.830296 78,65 C79,65.5 80,67 80,67 C80,67 76.5,67 77,68 C77.5,69 79.5,69.5 82,72 C84.5,74.5 89.5,80.5 89.5,80.5 L89.5,93 C89.5,93 88.9685554,90 87.5,90 C86.0314446,90 85,91.5 85,91.5 C85,91.5 85.4617725,89.1202216 84.5,89 C83.5382275,88.8797784 82.5,90.5 82.5,90.5 C82.5,90.5 82.9491554,88.5423745 82,88 C81.0508446,87.4576255 79.5,88 79.5,88 C79.5,88 80.8014763,86.1411811 80,85.5 C79.1985237,84.8588189 77.5,85.5 77.5,85.5 C77.5,85.5 78.5205722,83.0205722 78,82.5 C77.4794278,81.9794278 76,83.5 76,83.5 C76,83.5 75,81 74,81 C73,81 73,82.5 73,82.5 C73,82.5 71.5587315,80.4705474 70.5,80 C69.4412685,79.5294526 68.5,80.5 68.5,80.5 L66,77.5 C64.75,75.75 63.585821,73.8619403 62.5,73.5 C61.414179,73.1380597 60.5,75 60.5,75 C60.5,75 57.9888221,70.1396635 57.5,70 C57.0111779,69.8603365 55.7117691,70.491192 56,71.5 C56.2882309,72.508808 57.5,73 57.5,73 C57.5,73 56.7000734,73.7501835 57,74.5 C57.2999266,75.2498165 58.5,75.5 58.5,75.5 C58.5,75.5 56.1127039,75.7110724 56,76.5 C55.8872961,77.2889276 58,79 58,79 C58,79 55.4071969,78.6856063 55,79.5 C54.5928031,80.3143937 56.5,82.5 56.5,82.5 C56.5,82.5 54.8699158,82.7194946 55,83.5 C55.1300842,84.2805054 57,85 57,85 C57,85 54.5,87 55,88.5 C55.5,90 57.8798091,89.7247614 60.5,93 C63.1201909,96.2752386 71.5,109 71.5,109 C71.5,109 69.5,108.261864 69.5,109.5 C69.5,110.738136 70.299406,110.798557 71,112.5 C71.700594,114.201443 71.5,117.5 71.5,117.5 C71.5,117.5 69.41967,114.80055 69,115.5 C68.58033,116.19945 69.3800943,117.520377 70,120 C70.6199057,122.479623 72,125 72,125 C72,125 69.6230745,123.292308 69,123.5 C68.3769255,123.707692 70.1249776,129.913032 77,133.5 C80.1701255,135.153979 83.7830281,134.26936 86.5,134.5 C89.6753003,134.769547 91.7305538,136.113877 92,138 C92.5,141.5 85.5,142.5 82.5,143 C79.5,143.5 81.2841347,145.113908 76.5,145 C71.7158653,144.886092 71.2183789,142.338034 67.5,142 C63.7816211,141.661966 61.9282999,144.175762 59,143.5 C56.0717001,142.824238 55.4159941,140.871974 55,139 C54.5840059,137.128026 56.2236036,136.496448 57,134.5 C57.7763964,132.503552 58.7313199,130.0783 58.5,129.5 C58.2686801,128.9217 56,132 56,132 C56,132 55.4511626,130.009303 56,128.5 C56.5488374,126.990697 58.2721408,126.908211 58,126.5 C57.7278592,126.091789 55.5,126.5 55.5,126.5 C55.5,126.5 56.3561947,121.593658 56,121 C55.6438053,120.406342 54.5,123.5 54.5,123.5 C54.5,123.5 54.3899656,121.889966 54,121.5 C53.7232989,121.223299 52.5,121 52.5,121 C52.5,121 55.1034863,118.724404 55,118 C54.8965137,117.275596 52.5,118.5 52.5,118.5 C52.5,118.5 54.1793824,113.543506 53.5,113 C52.8206176,112.456494 50,116.5 50,116.5 L49.5,111.5 C49.5,111.5 52.620257,110.360771 52,108.5 C51.379743,106.639229 49.5491658,105.690757 48.5,105.5 C47.4508342,105.309243 46.5,107.5 46.5,107.5 C46.5,107.5 44.2937417,101.273217 43.5,101.5 C42.7062583,101.726783 42.5,105 42.5,105 C42.5,105 40.8415442,102.779962 40.5,105 C40.1584558,107.220038 41.5,111.5 41.5,111.5 C41.5,111.5 40,109.5 39,110 C38,110.5 39,117.5 39,117.5 C39,117.5 38.0908053,115.50019 37,117.5 C35.9091947,119.49981 36,123 36,123 C36,123 35,121.5 34,122 C33.4230021,122.288499 33.2298718,124.617606 32,126.5 C31.0983704,127.879999 29,129 29,129 C29,129 29.2106518,125.784261 28.5,125.5 C27.7893482,125.215739 27.8817375,127.338697 27,128 C26.1182625,128.661303 25.3106318,127.202989 24.5,128.5 C23.6893682,129.797011 24,132 24,132 C24,132 21.6116979,129.470755 21,131 C20.7151002,131.71225 21.8236428,133.260461 22,134.5 C22.2022929,135.921829 22,137 22,137 C22,137 18.9623488,133.990961 19.5,136.5 C20.0376512,139.009039 20.5,143 23.5,144 C26.5,145 30.7518224,146.138668 31,148 C31.2481776,149.861332 30.810074,151.751386 29.5,152.5 C28.189926,153.248614 26.0240344,152 24.5,152 C22.9759656,152 23,153 20,153 C17,153 15.2975809,152.142218 13,149.5 C10.7024191,146.857782 11.6191292,145.404868 9,142 C6.38087078,138.595132 3,137.5 2,136.5 C1,135.5 0.137466636,133.77008 1.5,130.5 C2.86253336,127.22992 6.5,128 7.5,127.5 C8.5,127 9.75692619,125.105541 9,124.5 C8.24307381,123.894459 6,125 6,125 C6,125 5.22580503,123.621443 8,121.5 C10.774195,119.378557 14.0257192,119.069137 14.5,118.5 C14.9742808,117.930863 10.5,117.5 10.5,117.5 C10.5,117.5 18.2536279,113.387698 18,112.5 C17.7463721,111.612302 15,112 15,112 C15,112 20.5,108 20,106 C19.5,104 10.9122189,101.861491 9,95 C7.08778114,88.1385088 14.6776422,74.5932525 15,69.5 C15.0562511,68.6112332 14.4826295,67.2388204 15,66 C15.5925917,64.5810657 16.7669423,61.8008269 16.5,61 C16,59.5 11.3639195,56.4730954 11,56 C10.6360805,55.5269046 11.5,55 11.5,54.5 C11.5,54 10.8621675,54.0513302 11,53.5 C11.1378325,52.9486698 11.8907057,52.9371771 12,52.5 C12.1092943,52.0628229 10.6149242,52.0746209 10.5,51.5 C10.3850758,50.9253791 11.2966817,50.5933634 11,50 C10.7033183,49.4066366 8.98982602,50.35029 9.5,49.5 C10.010174,48.64971 11.7330564,47.9004153 12,47.5 C12.2669436,47.0995847 9.42176164,43.4050219 12,44 C14.5782384,44.5949781 18,48 18,48 C18,48 23.5,53 22.5,60 C21.9351271,63.9541106 18.3357273,72.428703 16,80 C14.2007669,85.8322428 13.3473094,91.1068012 14,93.5 C15.5,99 22.2058542,95.2843887 22.5,94.5 C22.7941458,93.7156113 20,93.5 20,93.5 C20,93.5 26.9332804,88.5777072 26.5,88 C26.0667196,87.4222928 23,88 23,88 C23,88 23.4468663,86.2598289 25.5,84.5 C27.5531337,82.7401711 30.1602461,82.5945693 30.5,82 C30.8397539,81.4054307 28,81 28,81 C28,81 30.7079161,79.9736129 31,79 C31.2920839,78.0263871 30,76.5 30,76.5 C30,76.5 33.5,73.5 33,72.5 C32.5,71.5 29,74 29,74 C29,74 28.5674815,71.4325185 31,69 C33.4325185,66.5674815 36.5807922,66.0868909 37,65.5 C37.4192078,64.9131091 34,65.5 34,65.5 C34,65.5 35.318959,62.8620821 35.9784384,61.5431231 C37.5,58 35.75,58 35,58 C34.25,58 33.5,61.5 33.5,61.5 C33.5,61.5 32.5441307,59.7331989 32,59.5 C31.377464,59.2331989 30,59.5 30,59.5 C30,59.5 30.8440989,55.8028974 30.5,55 C30.1559011,54.1971026 28.5,56 28.5,56 C28.5,56 29.4491505,52.2966022 29,50.5 C28.5508495,48.7033978 27.3173309,47.6935009 26.5,48 C25.6826691,48.3064991 26,51 26,51 C26,51 23,47 23.5,46.5 C24.5054464,46.5 25.6152996,44.037696 25.5,43 C25.3847004,41.962304 23,42 23,42 C23,42 25.3911647,38.7823295 25,38 C24.6088353,37.2176705 21.5,39 21.5,39 C21.5,39 21.0417611,36.7906887 21.5,34.5 C21.8260899,32.8699106 23.1600673,31.1002525 23,30.5 C22.6149975,29.0562408 20,32 20,32 C20,32 18.9391817,29.5160228 19.5,27.5 C19.9178363,25.9979673 21.5,24.9029644 21.5,24.5 C21.5,23.5561784 19.5,23.5 19.5,23.5 C19.5,23.5 20.2705432,22.0026694 21.5,20.5 C22.7294568,18.9973306 24.6476115,18.6476115 24,18 C23.3523885,17.3523885 21,17.5 21,17.5 C21,17.5 21.8165845,15.7852774 23.5,14.5 C25.1801013,13.217253 27.7267702,12.3643064 28,12 C28.5469986,11.2706685 25.5,11.5 25.5,11.5 C25.5,11.5 26.8822187,9.29416797 29,8.5 C31.1177813,7.70583203 33.1019993,8.49750094 33.5,8 C33.8980007,7.50249906 30.5,6.5 30.5,6.5 C30.5,6.5 31.7817019,5.31241783 33.5,5 C35.2182981,4.68758217 36.5,5 36.5,5 C36.5,5 36.6259512,3.70474569 38.5,2.5 C39.1414237,2.08765622 41,2 42,1.5 C43,1 44.0133994,2.86232668e-14 45,2.84772206e-14 C46.5,2.84772206e-14 48.1351959,0.412010236 47.5,2 C46.8648041,3.58798976 45,3.5 45,5 C45,6.5 47.3308079,6.20948099 50,9 C52.6691921,11.790519 54,15.5 54,15.5 C55,17 56.8966427,17 58,17 C59.1033573,17 59.6478892,15.0943668 61,15.5 C62.3521108,15.9056332 63,17.5 63,19 L63,23 Z" fill="#008A59"></path>
            <path d="M49.5,16 C50.5908032,16.6060018 50.1119896,18.5057824 49,19 C47.8880104,19.4942176 44.877206,18.9823522 45,18 C45.122794,17.0176478 48.4091968,15.3939982 49.5,16 Z" fill="#FFFFFF"></path>
        </g>
        <path d="M154.5,143 L141,143 C139.811647,143 141.989042,140.956942 143,140 C144.994888,138.1117 150,133.5 147.5,132.5 C144.486224,131.294489 131.5,132.5 127.5,129 C125.022171,126.831899 131.733766,126.283738 135.5,123.5 C147,115 138,118 130,115.5 C122,113 129.5,114 138.5,107 C147.5,100 141.5,102.5 133,100.5 C124.5,98.5 136,97 142,90 C148,83 143,84.5 135,82.5 C127,80.5 139.5,79 145.5,73 C151.5,67 151.5,60 154.5,57 C154.58898,56.9110199 154.672682,56.9029738 154.75134,56.9711391 C154.811531,56.9255516 154.874461,56.9342338 154.940227,57 C157.940227,60 157.940227,67 163.940227,73 C169.940227,79 182.440227,80.5 174.440227,82.5 C166.440227,84.5 161.440227,83 167.440227,90 C173.440227,97 184.940227,98.5 176.440227,100.5 C167.940227,102.5 161.940227,100 170.940227,107 C179.940227,114 187.440227,113 179.440227,115.5 C171.440227,118 162.440227,115 173.940227,123.5 C177.706461,126.283738 184.418057,126.831899 181.940227,129 C177.940227,132.5 164.954004,131.294489 161.940227,132.5 C159.440227,133.5 164.445339,138.1117 166.440227,140 C167.451185,140.956942 169.62858,143 168.440227,143 L154.5,143 Z" fill="#008A59"></path>
        <path d="M156,50 L182.009433,50 L182.009433,46.9999852 L188,46.9999852 C188,46.9999852 189.171151,50.2763918 192.5,53 C195.828849,55.7236082 199,56 199,56 C199,56 199.5,106 198.5,110.5 C197.5,115 195.5,129 183.5,141.5 C171.5,154 155.5,162 155.5,162 L155.5,156 C155.5,156 169.277167,149.370959 180.388584,137.68548 C191.5,126 194.5,107 194.5,107 L194.5,60 C194.5,60 192.5,59.5 189,56.5 C185.5,53.5 186,53 185.5,53 C185,53 184,55 184,55 C174.372725,55 156,55 156,55 L156,50 Z M156,50 L129.115567,50 L129.115567,46.9999852 L123.125,46.9999852 C123.125,46.9999852 121.953849,50.2763918 118.625,53 C115.296151,55.7236082 112.125,56 112.125,56 C112.125,56 111.625,106 112.625,110.5 C113.625,115 115.625,129 127.625,141.5 C139.625,154 155.5,162 155.5,162 L155.5,156 C155.5,156 141.847833,149.370959 130.736416,137.68548 C119.625,126 116.625,107 116.625,107 L116.625,60 C116.625,60 118.625,59.5 122.125,56.5 C125.625,53.5 125.125,53 125.625,53 C126.125,53 127.125,55 127.125,55 C136.752275,55 156,55 156,55 L156,50 Z" fill="#323989"></path>
        <path d="M156.5,195 C156.5,195 118.5,196 114.5,195.5 C110.5,195 110,186 111.5,182 C113,178 126,172 126,172 C126,172 140,162.5 124,169 C108,175.5 77.5,181.5 58,182 C38.5,182.5 27,177 22,177 C20.3492847,177 11,179 11,179 L14.5,176 L11.5,176 L14.5,174 L11.5,174.5 L14.5,172 L11,172.5 L14.5,170 L10.5,170 L13,168 L8.5,168 L11.5,166 L7.5,166 C7.5,166 15.1463881,158.992325 22,159.5 C28.8536119,160.007675 46.5136316,165.713069 54.5,165 C62.4863684,164.286931 75.6400833,162.954696 93.5,159 C111.359917,155.045304 120.5,150.5 124.5,150 C128.5,149.5 130,149 133.5,155 C137,161 135.5,169.5 133.5,173 C131.5,176.5 128.3817,178.4926 128.5,179 C128.6183,179.5074 156.5,179 156.5,179 L156.5,195 C156.501649,195.000045 193.013421,195.999989 197.013331,195.5 C201.013331,195 201.513331,186 200.013331,182 C198.513331,178 185.513331,172 185.513331,172 C185.513331,172 171.513331,162.5 187.513331,169 C203.513331,175.5 234.013331,181.5 253.513331,182 C273.013331,182.5 284.513331,177 289.513331,177 C291.164046,177 300.513331,179 300.513331,179 L297.013331,176 L300.013331,176 L297.013331,174 L300.013331,174.5 L297.013331,172 L300.513331,172.5 L297.013331,170 L301.013331,170 L298.513331,168 L303.013331,168 L300.013331,166 L304.013331,166 C304.013331,166 296.366943,158.992325 289.513331,159.5 C282.659719,160.007675 264.999699,165.713069 257.013331,165 C249.026963,164.286931 235.873248,162.954696 218.013331,159 C200.153414,155.045304 191.013331,150.5 187.013331,150 C183.013331,149.5 181.513331,149 178.013331,155 C174.513331,161 176.013331,169.5 178.013331,173 C180.013331,176.5 183.131631,178.4926 183.013331,179 C182.895031,179.5074 156.5,178.9926 156.5,178.9926 C156.5,178.9926 156.5,189.351494 156.5,194.5 C156.5,194.687294 156.5,195 156.5,195 Z" fill="#323989"></path>
        <g transform="translate(27.000000, 155.000000)" fill="#FFFFFF">
            <path d="M0.738144423,19.8937448 L3.95288137,10.3441528 L5.92888241,11.009346 L4.70318217,14.6503709 L8.43490873,15.9066046 L9.66060897,12.2655797 L11.6430887,12.9329539 L8.42835176,22.4825458 L6.44587203,21.8151717 L7.88094456,17.5521924 L4.149218,16.2959587 L2.71414547,20.558938 L0.738144423,19.8937448 Z M22.1308049,15.5692516 L16.8552768,14.7950678 L16.5446107,16.9120425 L21.387275,17.6227036 L21.1331838,19.354159 L16.2905196,18.6434979 L15.9143456,21.2068635 L21.4333596,22.0167789 L21.1703356,23.8091057 L13.6155089,22.7004347 L15.0785179,12.7310394 L22.3898587,13.8039788 L22.1308049,15.5692516 Z M26.1373026,13.5251893 L28.2419547,13.5838263 L28.0117855,21.845269 L33.0000843,21.9842463 L32.9496336,23.7950671 L25.8566828,23.5974528 L26.1373026,13.5251893 Z M38.7396114,20.1387113 C38.8289108,20.5947399 38.9731743,20.9313106 39.1724062,21.1484334 C39.5367373,21.5435006 40.1329679,21.7179702 40.9611157,21.6718473 C41.4570944,21.6442242 41.8567456,21.5671943 42.1600813,21.4407553 C42.7354078,21.1987516 43.007228,20.7933645 42.9755502,20.2245816 C42.9570504,19.8924125 42.797126,19.6434359 42.4957723,19.4776444 C42.194672,19.3164032 41.7286344,19.1848901 41.0976458,19.0831011 L40.019585,18.903514 C38.9598465,18.7251876 38.2220474,18.5083952 37.8061655,18.2531303 C37.1023273,17.8267635 36.7229175,17.1198871 36.6679248,16.1324801 C36.6177471,15.231528 36.9036737,14.4647749 37.5257132,13.8321976 C38.1477527,13.1996203 39.0935199,12.8479845 40.3630433,12.7772796 C41.4232545,12.7182321 42.3432543,12.9488397 43.1230702,13.4691091 C43.9028862,13.9893786 44.3407657,14.7831436 44.4367222,15.850428 L42.4164156,15.962947 C42.3463082,15.3597895 42.0584489,14.9444944 41.5528288,14.7170493 C41.2158333,14.566936 40.8039026,14.5054383 40.3170245,14.5325546 C39.7755432,14.5627118 39.3493568,14.6959913 39.0384524,14.9323969 C38.727548,15.1688025 38.5829952,15.4826619 38.6047895,15.8739846 C38.6248099,16.2334553 38.7990184,16.4930471 39.1274203,16.6527678 C39.3387711,16.7596706 39.7833191,16.8741234 40.4610775,16.9961294 L42.217907,17.3159229 C42.9879378,17.4556118 43.5748202,17.6671165 43.9785719,17.9504432 C44.6055625,18.3902187 44.9440149,19.0582974 44.9939391,19.9546992 C45.0451305,20.8738523 44.736139,21.656724 44.0669553,22.3033379 C43.3977716,22.9499518 42.4216073,23.3089859 41.1384332,23.3804511 C39.8279575,23.4534368 38.7806761,23.2116608 37.9965577,22.655116 C37.2124392,22.0985711 36.7912427,21.2970305 36.7329556,20.2504701 L38.7396114,20.1387113 Z M51.5809802,21.8666848 L49.5061069,22.1322313 L48.2269708,12.1375803 L50.301844,11.8720337 L51.5809802,21.8666848 Z M54.8237116,11.1408026 L57.0027926,10.7845659 L62.0978021,17.0791895 L60.9629181,10.1371637 L62.8991294,9.82063148 L64.5248038,19.7647967 L62.4469185,20.1044899 L57.2308611,13.7049749 L58.3855973,20.7684356 L56.449386,21.0849678 L54.8237116,11.1408026 Z M74.4216518,10.2604953 C74.114832,9.62420896 73.6290638,9.24078922 72.9643329,9.11022459 C72.5933957,9.03961573 72.2011972,9.05087652 71.7877257,9.14400728 C70.99635,9.32225755 70.4134859,9.76769535 70.0391159,10.480334 C69.664746,11.1929727 69.6127516,12.1494784 69.8831312,13.3498797 C70.1555137,14.5591729 70.623925,15.3529155 71.2883793,15.7311313 C71.9528336,16.1093472 72.6362791,16.2193424 73.3387361,16.0611202 C74.0278554,15.9059023 74.5476679,15.5797732 74.8981892,15.0827232 C75.2487105,14.5856732 75.4024951,14.0033108 75.3595477,13.3356184 L73.0854654,13.8478351 L72.7159484,12.2072948 L76.8106303,11.2850045 L77.9987926,16.560075 L76.6383446,16.8665037 L76.1552231,15.6859981 C75.8646829,16.241946 75.5831167,16.6510512 75.3105161,16.9133261 C74.843218,17.3689424 74.2138905,17.685871 73.4225148,17.8641212 C72.1198571,18.1575332 70.9512085,17.9466118 69.916534,17.2313508 C68.8452907,16.5196551 68.1324308,15.3768946 67.7779331,13.8030351 C67.4194297,12.2113919 67.5699481,10.8367919 68.2294928,9.6791938 C68.8890375,8.52159575 69.9390348,7.78058006 71.3795164,7.45612451 C72.628823,7.17472941 73.7038259,7.26543321 74.6045575,7.72823862 C75.5052891,8.19104403 76.1178695,8.88341041 76.4423173,9.80535853 L74.4216518,10.2604953 Z M84.6269976,14.4738552 L82.6163556,15.0508584 L79.8369347,5.36560882 L81.8475768,4.78860558 L84.6269976,14.4738552 Z M86.2760346,3.39032602 L88.3803039,2.72148415 L94.3352399,8.20966642 L92.2044712,1.50597276 L94.0742089,0.911676734 L97.126447,10.514441 L95.1198993,11.1522221 L89.0299688,5.57783484 L91.1980104,12.3987943 L89.3282728,12.9930903 L86.2760346,3.39032602 Z"></path>
        </g>
        <path d="M145.517578,184.208008 L140.185547,184.208008 L140.185547,186.347656 L145.080078,186.347656 L145.080078,188.097656 L140.185547,188.097656 L140.185547,190.688477 L145.763672,190.688477 L145.763672,192.5 L138.12793,192.5 L138.12793,182.423828 L145.517578,182.423828 L145.517578,184.208008 Z M152.509766,184.173828 L152.509766,186.880859 L154.895508,186.880859 C155.369469,186.880859 155.724934,186.826172 155.961914,186.716797 C156.381187,186.52539 156.59082,186.147138 156.59082,185.582031 C156.59082,184.971351 156.388023,184.561199 155.982422,184.351562 C155.754556,184.233072 155.412763,184.173828 154.957031,184.173828 L152.509766,184.173828 Z M157.024902,182.683594 C157.405438,182.8431 157.727863,183.077798 157.992188,183.387695 C158.210939,183.642905 158.384114,183.925454 158.511719,184.235352 C158.639324,184.545249 158.703125,184.898436 158.703125,185.294922 C158.703125,185.77344 158.582358,186.243976 158.34082,186.706543 C158.099283,187.16911 157.700524,187.496093 157.144531,187.6875 C157.609377,187.87435 157.938638,188.139809 158.132324,188.483887 C158.32601,188.827964 158.422852,189.353187 158.422852,190.05957 L158.422852,190.736328 C158.422852,191.196617 158.441081,191.508788 158.477539,191.672852 C158.532227,191.932618 158.65983,192.124023 158.860352,192.24707 L158.860352,192.5 L156.542969,192.5 C156.479166,192.276692 156.433594,192.09668 156.40625,191.959961 C156.351562,191.677407 156.32194,191.388022 156.317383,191.091797 L156.303711,190.155273 C156.294596,189.512692 156.177247,189.084311 155.95166,188.870117 C155.726073,188.655923 155.303389,188.548828 154.683594,188.548828 L152.509766,188.548828 L152.509766,192.5 L150.452148,192.5 L150.452148,182.423828 L155.394531,182.423828 C156.100915,182.4375 156.644367,182.524088 157.024902,182.683594 L157.024902,182.683594 Z M166.269531,188.692383 L168.826172,188.692383 L167.568359,184.727539 L166.269531,188.692383 Z M166.399414,182.423828 L168.77832,182.423828 L172.34668,192.5 L170.063477,192.5 L169.414062,190.428711 L165.702148,190.428711 L165.004883,192.5 L162.803711,192.5 L166.399414,182.423828 Z M170.046875,181 L171.831055,181 L171.831055,182.78 L170.046875,182.78 L170.046875,181 Z M163.3125,181 L165.09668,181 L165.09668,182.78 L163.3125,182.78 L163.3125,181 Z M175.879883,186.673828 L179.803711,186.673828 L179.803711,188.519531 L175.879883,188.519531 L175.879883,186.673828 Z" fill="#FFFFFF"></path>
        <g transform="translate(198.000000, 159.000000)" fill="#FFFFFF">
            <path d="M3.75455526,0.0506762403 L5.74008879,0.751144125 L2.99052492,8.54500788 L7.69649725,10.2052077 L7.09382196,11.9135402 L0.402316101,9.55287242 L3.75455526,0.0506762403 Z M20.8241461,6.90358413 L15.683681,5.48718899 L15.115307,7.54996539 L19.8339904,8.85014349 L19.3691223,10.5372705 L14.6504389,9.23709242 L13.9622161,11.7348313 L19.3399335,13.2165985 L18.8587223,14.9630386 L11.4973126,12.9346881 L14.1739362,3.22052701 L21.2980937,5.1835054 L20.8241461,6.90358413 Z M25.3412599,16.1409246 L23.2934784,15.7140698 L25.3496355,5.84991966 L27.397417,6.27677452 L25.3412599,16.1409246 Z M32.0995165,13.4475834 L32.0599115,13.6766061 C31.9450805,14.4476157 31.9358978,15.0021703 32.0323633,15.3402865 C32.1288288,15.6784027 32.4240436,15.890169 32.9180165,15.9755919 C33.4074987,16.0602382 33.7603308,15.9455078 33.9765235,15.6313975 C34.1057731,15.4456256 34.2119429,15.1124943 34.295036,14.6319934 L35.4959977,7.68721815 L37.5706735,8.04599234 L36.3755361,14.9570878 C36.2295407,15.8013323 35.9678889,16.4451929 35.590573,16.8886886 C34.9521578,17.638529 33.9885546,17.9020073 32.6997344,17.6791313 C31.4109141,17.4562553 30.6049107,16.9688503 30.2816997,16.2169015 C29.9584888,15.4649528 29.8978385,14.5052067 30.099747,13.3376343 L30.139352,13.1086117 L32.0995165,13.4475834 Z M47.5890332,16.8210941 C48.1466369,16.2664695 48.4908762,15.4255709 48.6217617,14.2983731 C48.7521216,13.1757022 48.6095952,12.2794294 48.1941784,11.6095279 C47.7787616,10.9396263 47.1568513,10.5565848 46.3284288,10.4603918 C45.5000063,10.3641989 44.8036086,10.593017 44.2392146,11.1468531 C43.6748206,11.7006892 43.3271861,12.5411936 43.1963006,13.6683914 C43.0654151,14.7955892 43.2112052,15.6933879 43.6336752,16.3618145 C44.0561451,17.0302411 44.681582,17.4125451 45.5100045,17.5087381 C46.3384269,17.604931 47.0314296,17.3757186 47.5890332,16.8210941 L47.5890332,16.8210941 Z M48.7195531,18.4939035 C47.8731501,19.1847475 46.7347157,19.4471137 45.3042157,19.2810101 C43.8737156,19.1149064 42.8256907,18.5986577 42.1601095,17.7322485 C41.2569951,16.6593285 40.9097836,15.2243006 41.1184644,13.4271218 C41.3313505,11.5937277 41.9981491,10.2764424 43.1188802,9.47522634 C43.9652832,8.78438238 45.1037176,8.52201616 46.5342176,8.68811981 C47.9647176,8.85422347 49.0127426,9.37047217 49.6783238,10.2368814 C50.5811164,11.2730606 50.9260645,12.7078256 50.7131785,14.5412197 C50.5044977,16.3383985 49.8399625,17.6559466 48.7195531,18.4939035 L48.7195531,18.4939035 Z M55.0689207,9.38275466 L57.2756918,9.45664357 L61.0507475,16.6211647 L61.2861397,9.59092466 L63.246955,9.65657827 L62.9097653,19.7271067 L60.8054758,19.6566492 L56.9320562,12.3657188 L56.6925463,19.5189367 L54.731731,19.4532831 L55.0689207,9.38275466 Z M70.3549087,15.1906058 L72.9060673,15.0232696 L71.3914466,11.1492533 L70.3549087,15.1906058 Z M70.0742262,8.92699141 L72.4480315,8.77128824 L76.6682408,18.5922995 L74.3899334,18.7417387 L73.6063427,16.7173962 L69.902388,16.9603469 L69.3421866,19.0728317 L67.1457346,19.2169019 L70.0742262,8.92699141 Z M85.0818704,6.24697266 L85.4218578,7.99845939 L82.4624492,8.57292079 L84.0425437,16.7129721 L81.9622338,17.1167885 L80.3821392,8.9767372 L77.4093093,9.55380387 L77.0693219,7.80231714 L85.0818704,6.24697266 Z"></path>
        </g>
    </g>
</svg>